<?xml version="1.0" standalone="no"?>
<!DOCTYPE svg PUBLIC "-//W3C//DTD SVG 20010904//EN"
 "http://www.w3.org/TR/2001/REC-SVG-20010904/DTD/svg10.dtd">
<svg version="1.0" xmlns="http://www.w3.org/2000/svg"
 width="1800.000000pt" height="1800.000000pt" viewBox="0 0 1800.000000 1800.000000"
 preserveAspectRatio="xMidYMid meet">
<metadata>
Created by potrace 1.11, written by Peter Selinger 2001-2013
</metadata>
<g transform="translate(0.000000,1800.000000) scale(0.100000,-0.100000)"
fill="#000000" stroke="none">
<path d="M12915 17510 c-2259 -570 -4386 -1476 -6357 -2706 -2791 -1741 -4925
-4019 -5437 -5803 -90 -313 -116 -490 -116 -786 0 -255 15 -361 77 -555 126
-396 409 -720 819 -939 518 -277 1294 -414 2161 -381 433 16 737 33 2123 120
2291 144 2681 156 2942 90 584 -148 561 -728 -68 -1673 -686 -1029 -2018
-2423 -4007 -4191 -166 -148 -302 -270 -302 -271 0 -4 356 83 575 141 1057
279 2067 626 3080 1059 757 323 1623 755 2336 1165 2271 1305 4190 2959 5306
4570 504 728 818 1426 923 2050 27 160 37 454 21 600 -25 212 -76 390 -162
563 -323 649 -1093 1020 -2274 1097 -391 25 -650 14 -2575 -105 -991 -62
-1453 -89 -1955 -117 -126 -7 -408 -12 -625 -13 -346 0 -406 2 -480 18 -364
79 -516 302 -455 668 156 936 1712 2747 4453 5181 174 154 321 285 327 289 17
16 -16 9 -330 -71z"/>
</g>
</svg>
